<?xml version="1.0" standalone="no"?>
<!DOCTYPE svg PUBLIC "-//W3C//DTD SVG 20010904//EN"
 "http://www.w3.org/TR/2001/REC-SVG-20010904/DTD/svg10.dtd">
<svg version="1.0" xmlns="http://www.w3.org/2000/svg"
 width="99.000000pt" height="99.000000pt" viewBox="0 0 99.000000 99.000000"
 preserveAspectRatio="xMidYMid meet">
<metadata>
Created by potrace 1.14, written by Peter Selinger 2001-2017
</metadata>
<g transform="translate(0.000000,99.000000) scale(0.100000,-0.100000)"
fill="#000000" stroke="none">
<path d="M138 979 c-7 -5 -11 -103 -11 -290 1 -317 8 -374 64 -461 47 -73 138
-146 259 -208 l41 -21 61 33 c79 42 178 114 210 153 86 106 98 169 98 519 0
152 -3 276 -7 277 -36 5 -707 2 -715 -2z m276 -81 c14 -23 -18 -68 -49 -68
-41 0 -69 44 -47 76 4 6 16 16 27 22 22 12 50 -1 69 -30z m-197 -8 c2 0 14 10
24 23 l20 22 -16 -26 c-14 -24 -14 -27 9 -52 33 -35 20 -35 -16 0 l-28 27 0
-27 c0 -15 -3 -27 -8 -27 -4 0 -7 21 -6 48 2 55 5 66 11 35 2 -13 7 -23 10
-23z m310 24 c3 -8 1 -20 -6 -27 -8 -8 -5 -17 11 -34 12 -13 16 -23 10 -23 -6
0 -19 12 -28 26 -15 22 -15 27 -3 34 10 7 11 12 2 21 -19 19 -30 2 -28 -41 1
-22 -2 -40 -7 -40 -4 0 -8 23 -8 50 0 47 2 50 25 50 14 0 28 -7 32 -16z m118
9 c-31 -8 -38 -27 -12 -35 l22 -6 -22 -1 c-29 -1 -23 -33 8 -42 21 -6 20 -7
-8 -8 -33 -1 -35 2 -35 49 0 47 2 50 35 49 21 -1 25 -3 12 -6z m136 -46 c10
-26 15 -47 10 -47 -6 0 -13 9 -16 20 -9 27 -43 25 -55 -2 -6 -17 -9 -19 -9 -6
-1 25 31 89 42 85 5 -1 18 -24 28 -50z m-492 -100 c8 -10 7 -14 -2 -14 -8 0
-14 6 -14 14 0 7 1 13 2 13 2 0 8 -6 14 -13z m68 -29 c-3 -7 -5 -2 -5 12 0 14
2 19 5 13 2 -7 2 -19 0 -25z m116 12 c3 -11 1 -20 -4 -20 -5 0 -9 9 -9 20 0
11 2 20 4 20 2 0 6 -9 9 -20z m146 -14 c-3 -3 -11 5 -18 17 -13 21 -12 21 5 5
10 -10 16 -20 13 -22z m48 2 c-3 -7 -5 -2 -5 12 0 14 2 19 5 13 2 -7 2 -19 0
-25z m123 26 c0 -8 -19 -13 -24 -6 -3 5 1 9 9 9 8 0 15 -2 15 -3z m-479 -27
c-10 -9 -11 -8 -5 6 3 10 9 15 12 12 3 -3 0 -11 -7 -18z m243 7 c3 -8 2 -12
-4 -9 -6 3 -10 10 -10 16 0 14 7 11 14 -7z m171 7 c3 -5 2 -12 -3 -15 -5 -3
-9 1 -9 9 0 17 3 19 12 6z m-305 -11 c0 -5 -4 -10 -10 -10 -5 0 -10 5 -10 10
0 6 5 10 10 10 6 0 10 -4 10 -10z m408 -227 c-4 -163 -5 -170 -35 -233 -35
-72 -59 -103 -118 -147 -68 -50 -168 -107 -187 -106 -26 2 -134 69 -196 120
-28 25 -63 64 -77 87 -49 84 -57 121 -59 289 l-1 157 339 0 338 0 -4 -167z"/>
<path d="M337 913 c-4 -3 -7 -19 -7 -34 0 -22 6 -30 26 -35 29 -7 44 7 44 42
0 28 -44 46 -63 27z"/>
<path d="M736 895 c-3 -9 0 -15 9 -15 16 0 20 16 6 24 -5 3 -11 -1 -15 -9z"/>
<path d="M567 634 c-3 -4 -21 -8 -38 -10 -42 -5 -99 -26 -99 -36 0 -15 43 -8
63 9 18 17 19 17 33 -2 8 -11 25 -20 37 -20 36 -2 50 -14 36 -31 -9 -11 -8
-15 5 -20 20 -8 46 2 46 17 0 6 -7 8 -16 5 -9 -4 -14 -1 -12 6 5 13 48 22 48
9 0 -4 -9 -20 -21 -35 -20 -25 -21 -25 -50 -10 l-30 15 6 -38 c4 -21 7 -49 6
-62 -1 -20 1 -21 14 -11 8 7 15 26 15 42 0 17 4 27 10 23 15 -9 12 -51 -5 -65
-16 -13 -10 -35 6 -24 5 3 18 -5 29 -18 l20 -23 -6 31 c-5 26 -2 33 15 39 17
5 19 12 15 47 -6 37 -5 40 15 33 12 -4 21 -2 21 4 0 6 -6 11 -12 12 -7 0 -2 5
11 10 17 7 22 15 18 29 -3 11 -1 20 4 20 5 0 9 3 9 8 -1 10 -131 52 -162 52
-14 0 -27 -3 -31 -6z m53 -28 c8 -3 1 -4 -17 -1 -27 4 -31 2 -26 -13 6 -15 5
-15 -11 -3 -17 14 -17 16 0 28 10 7 22 9 28 4 6 -4 18 -11 26 -15z"/>
<path d="M390 554 c-25 -17 -30 -24 -17 -25 9 -1 23 -2 30 -3 6 -1 11 7 9 16
-3 16 0 17 23 6 24 -11 25 -13 10 -24 -12 -9 -13 -13 -3 -18 7 -3 0 -2 -16 1
-22 4 -33 1 -43 -12 -12 -18 -13 -18 -13 3 0 34 -12 26 -49 -33 -20 -33 -41
-55 -51 -55 -10 0 -20 -7 -24 -15 -3 -8 -11 -13 -18 -11 -7 1 -10 1 -5 -1 4
-3 5 -8 2 -13 -3 -4 4 -6 15 -3 11 3 18 9 15 13 -3 5 -1 11 4 14 13 9 7 -19
-8 -38 -12 -14 -12 -16 4 -10 10 4 21 1 26 -7 6 -10 9 -10 9 -1 0 17 14 15 40
-8 26 -22 40 -26 40 -9 0 5 5 7 12 3 8 -5 9 -2 5 10 -4 11 -3 15 4 11 6 -4 8
-13 5 -21 -3 -7 -1 -16 4 -19 6 -4 7 -17 4 -31 -4 -15 -2 -24 6 -24 6 0 8 5 4
12 -4 7 -3 8 5 4 9 -6 9 -11 1 -21 -8 -10 -4 -18 16 -34 32 -25 57 -27 75 -5
15 19 21 47 8 38 -15 -9 -10 6 9 26 17 18 18 18 55 0 32 -16 39 -16 51 -5 12
12 11 21 -2 60 -13 34 -18 41 -24 27 -6 -16 -7 -16 -7 0 -1 9 -10 23 -22 31
-15 11 -21 28 -23 71 -3 57 -19 95 -23 53 -1 -12 -4 -34 -6 -49 -3 -16 0 -32
9 -39 9 -8 11 -16 4 -29 -8 -14 -5 -19 13 -24 l22 -6 -23 -15 c-12 -9 -20 -19
-18 -23 2 -4 -1 -18 -8 -31 l-13 -23 -12 34 c-7 18 -19 46 -27 61 -8 16 -12
32 -9 37 3 4 1 18 -3 31 -5 13 -5 39 -1 59 17 72 -16 102 -71 64z m52 -154
c-2 -2 -8 2 -13 10 -8 12 -12 12 -16 2 -8 -20 -40 -34 -40 -17 0 8 4 12 9 9 4
-3 8 0 8 5 0 15 -6 14 -35 -5 -20 -13 -23 -20 -14 -35 8 -15 6 -19 -7 -19 -13
0 -15 6 -11 30 5 24 4 28 -11 24 -14 -5 -15 -4 -2 5 8 5 11 13 7 17 -9 10 22
44 41 44 8 0 12 -6 9 -12 -3 -9 6 -13 24 -14 22 -1 29 5 35 25 7 23 8 21 14
-19 3 -25 4 -47 2 -50z m-35 64 c-3 -3 -12 -4 -19 -1 -8 3 -5 6 6 6 11 1 17
-2 13 -5z m26 -91 c-7 -2 -19 -2 -25 0 -7 3 -2 5 12 5 14 0 19 -2 13 -5z m25
-52 c22 -18 32 -68 12 -56 -6 4 -8 10 -5 15 3 5 1 11 -5 15 -10 6 -34 45 -27
45 2 0 14 -8 25 -19z m152 -2 c0 -5 -7 -9 -15 -9 -8 0 -18 0 -22 -1 -4 0 -9 3
-10 8 -2 4 8 9 22 9 14 1 25 -2 25 -7z m-103 -93 c-2 -6 -16 -11 -32 -11 -16
0 -30 5 -32 11 -2 6 12 10 32 10 20 0 34 -4 32 -10z"/>
<path d="M490 550 c0 -22 1 -23 24 -14 18 7 10 34 -10 34 -8 0 -14 -9 -14 -20z"/>
<path d="M486 504 c-3 -8 -3 -27 0 -41 5 -18 3 -24 -5 -19 -6 4 -11 1 -11 -8
0 -9 5 -16 10 -16 6 0 10 -11 10 -25 0 -14 4 -25 10 -25 5 0 9 32 9 75 -1 71
-10 94 -23 59z"/>
<path d="M430 136 c0 -8 4 -17 9 -20 5 -4 7 3 4 14 -6 23 -13 26 -13 6z"/>
<path d="M456 142 c-3 -2 0 -12 6 -22 11 -17 13 -17 30 4 17 20 18 20 12 1 -6
-16 -5 -18 7 -7 7 6 19 12 27 12 12 0 12 -3 2 -15 -11 -13 -10 -14 4 -9 18 7
20 13 8 30 -7 10 -87 15 -96 6z"/>
</g>
</svg>
